<svg width="560" height="133" viewBox="0 0 560 133" fill="none" xmlns="http://www.w3.org/2000/svg">
<path d="M92.5653 71.2893C92.8133 69.844 92.9506 68.3613 92.9506 66.8466C92.9506 52.4853 81.304 40.8026 66.9893 40.8026C56.2546 40.8026 47.0213 47.3706 43.0733 56.7106H54.6919C57.6146 53.1386 62.032 50.848 66.9893 50.848C73.8266 50.848 79.656 55.196 81.9186 61.2733H56.4986V61.2773H41.6293C41.2386 63.0733 41.0266 64.9346 41.0266 66.8466C41.0266 81.2066 52.6733 92.8906 66.9893 92.8906C77.3413 92.8906 86.2959 86.7772 90.4613 77.9626H78.4293C75.5319 80.9693 71.4786 82.844 66.9893 82.844C59.7306 82.844 53.6013 77.9506 51.6773 71.2826H82.2986L82.2973 71.2893H92.5653Z" fill="white"/>
<path d="M10.8615 66.736C10.8615 40.9026 28.2995 19.0933 51.9827 12.4907V23.1386C33.9473 29.3973 20.9541 46.5933 20.9541 66.7867C20.9541 86.9797 33.9473 104.176 51.9827 110.433V120.98C28.2995 114.379 10.8615 92.5679 10.8615 66.736ZM62 102.565C44.492 100.12 30.9683 85.0121 30.9683 66.7867C30.9683 48.5613 44.492 33.452 62 31.0067V0.593323C27.8527 3.16266 0.846924 31.836 0.846924 66.736C0.846924 101.636 27.8527 130.307 62 132.877V102.565Z" fill="white"/>
<path d="M81.964 120.989V110.444C100.015 104.195 113.024 86.9917 113.024 66.7867C113.024 46.5813 100.015 29.3773 81.964 23.1293V12.4827C105.663 19.0733 123.116 40.892 123.116 66.736C123.116 92.5797 105.663 114.397 81.964 120.989ZM71.9773 0.593323V31.0067C89.4866 33.452 103.009 48.5613 103.009 66.7867C103.009 85.0121 89.4853 100.12 71.9773 102.565V132.877C106.124 130.308 133.131 101.636 133.131 66.736C133.131 31.8346 106.124 3.16266 71.9773 0.593323Z" fill="white"/>
<path d="M292.103 40.904C288.168 40.904 284.501 41.996 281.2 44.1493C279.591 45.196 278.169 46.428 276.947 47.8346C275.723 46.4266 274.301 45.1933 272.688 44.1466C269.393 41.996 265.715 40.904 261.763 40.904C256.24 40.904 251.461 42.896 247.556 46.824C243.641 50.716 241.649 55.5053 241.649 61.0466V87.7736V91.1146H244.992H248.223H251.564V87.7736V61.0466C251.564 58.1973 252.544 55.8266 254.559 53.796C256.56 51.796 258.919 50.8186 261.763 50.8186C264.611 50.8186 266.983 51.7986 269.012 53.8133C271.011 55.8266 271.989 58.1973 271.989 61.0466V87.7736V91.1146H275.332H278.563H281.904V87.7736V61.0466C281.904 58.1973 282.884 55.8266 284.899 53.796C286.9 51.796 289.259 50.8186 292.103 50.8186C294.951 50.8186 297.321 51.7986 299.352 53.8133C301.351 55.8266 302.329 58.1973 302.329 61.0466V87.7736V91.1146H305.672H308.903H312.244V87.7736V61.0466C312.244 55.5053 310.252 50.716 306.324 46.8106C302.432 42.896 297.643 40.904 292.103 40.904Z" fill="white"/>
<path d="M438.907 42.52H435.564V91.1439H445.479V87.8027V45.8627V42.52H442.137H438.907Z" fill="white"/>
<path d="M476.239 40.904C470.02 40.904 464.629 43.1413 460.219 47.5507C455.808 51.9627 453.571 57.3533 453.571 63.572V87.8027V91.1439H456.913H460.144H463.485V87.8027V63.572C463.485 60.0173 464.712 57.0627 467.236 54.5387C469.745 52.0133 472.688 50.7893 476.239 50.7893C477.563 50.7893 478.885 51.0013 480.168 51.4187L484.544 52.8413V48.2413V44.892V42.32L482.057 41.6627C480.16 41.16 478.201 40.904 476.239 40.904Z" fill="white"/>
<path d="M494.695 42.52H491.353V91.1439H501.268V87.8027V45.8627V42.52H497.925H494.695Z" fill="white"/>
<path d="M533.131 50.848C537.595 50.848 541.299 52.3826 544.455 55.5387C547.611 58.6933 549.144 62.3973 549.144 66.8613C549.144 71.3267 547.611 75.0293 544.455 78.1853C541.299 81.3413 537.595 82.876 533.131 82.876C528.667 82.876 524.963 81.3413 521.807 78.1853C518.651 75.0293 517.117 71.3267 517.117 66.8613C517.117 62.3973 518.651 58.6933 521.807 55.5373C524.963 52.3826 528.667 50.848 533.131 50.848ZM551.437 48.5453C546.412 43.4987 540.249 40.9333 533.131 40.9333C526.015 40.9333 519.844 43.496 514.791 48.5507C509.756 53.5853 507.203 59.7467 507.203 66.8613C507.203 73.9747 509.753 80.144 514.785 85.1975C519.848 90.2387 526.017 92.7892 533.131 92.7892C537.74 92.7892 542.097 91.6198 546.083 89.3146C547.163 88.6813 548.183 87.984 549.144 87.224V87.8319V91.1745H552.487H555.717H559.059V87.8319V66.8613C559.059 59.7427 556.495 53.58 551.437 48.5453Z" fill="white"/>
<path d="M426.871 83.4533C426.871 86.813 424.147 89.537 420.787 89.537C417.427 89.537 414.703 86.813 414.703 83.4533C414.703 80.0933 417.427 77.3706 420.787 77.3706C424.147 77.3706 426.871 80.0933 426.871 83.4533Z" fill="white"/>
<path d="M236.352 66.872C236.352 52.5493 224.7 40.8973 210.377 40.8973C199.675 40.8973 190.481 47.4147 186.509 56.68H198.157C201.079 53.1693 205.463 50.9227 210.377 50.9227C217.18 50.9227 222.984 55.2107 225.272 61.2187L185.031 61.2213C184.625 63.0413 184.404 64.9307 184.404 66.872C184.404 81.1933 196.056 92.8455 210.377 92.8455C220.639 92.8455 229.527 86.8641 233.744 78.2053H221.565C218.685 81.052 214.737 82.82 210.377 82.82C203.171 82.82 197.072 78.0107 195.103 71.436L235.943 71.432C236.207 69.9493 236.352 68.428 236.352 66.872Z" fill="white"/>
<path d="M428.671 66.872C428.671 52.5493 417.019 40.8973 402.696 40.8973C391.995 40.8973 382.801 47.4147 378.828 56.68H390.476C393.399 53.1693 397.783 50.9227 402.696 50.9227C409.499 50.9227 415.303 55.2107 417.592 61.2187L377.349 61.2213C376.944 63.0413 376.723 64.9307 376.723 66.872C376.723 81.1933 388.375 92.8455 402.696 92.8455C404.964 92.8455 407.157 92.5371 409.255 91.9892V81.384C407.252 82.2973 405.039 82.82 402.696 82.82C395.489 82.82 389.391 78.0107 387.421 71.436L428.261 71.432C428.525 69.9493 428.671 68.428 428.671 66.872Z" fill="white"/>
<path d="M363.843 48.5213C358.808 43.4867 352.647 40.9333 345.531 40.9333C338.417 40.9333 332.249 43.4853 327.196 48.516C322.155 53.58 319.604 59.748 319.604 66.8613V103.399V106.741H322.945H326.176H329.517V103.399V87.2188L329.525 87.2225V67.0253L329.517 66.8613L329.525 66.6973V66.6773C329.568 62.2973 331.096 58.6493 334.208 55.5373C337.368 52.36 341.071 50.8187 345.531 50.8187C349.992 50.8187 353.693 52.36 356.848 55.532C360.011 58.6933 361.544 62.3973 361.544 66.8613C361.544 71.3093 360.008 75.016 356.848 78.192C353.699 81.3413 349.995 82.876 345.531 82.876C341.067 82.876 337.363 81.3413 334.208 78.1853C333.681 77.656 333.216 77.1067 332.78 76.5467V89.3949C336.676 91.6403 340.971 92.7892 345.531 92.7892C352.649 92.7892 358.812 90.2251 363.847 85.1679C368.895 80.1427 371.459 73.98 371.459 66.8613C371.459 59.7467 368.896 53.5747 363.843 48.5213Z" fill="white"/>
</svg>
