<?xml version="1.0" encoding="UTF-8" standalone="no"?>
<!DOCTYPE svg PUBLIC "-//W3C//DTD SVG 1.1//EN" "http://www.w3.org/Graphics/SVG/1.1/DTD/svg11.dtd">
<svg width="100%" height="100%" viewBox="0 0 560 133" version="1.1" xmlns="http://www.w3.org/2000/svg" xmlns:xlink="http://www.w3.org/1999/xlink" xml:space="preserve" xmlns:serif="http://www.serif.com/" style="fill-rule:evenodd;clip-rule:evenodd;stroke-linejoin:round;stroke-miterlimit:2;">
    <path d="M92.565,71.289C92.813,69.844 92.951,68.361 92.951,66.847C92.951,52.485 81.304,40.803 66.989,40.803C56.255,40.803 47.021,47.371 43.073,56.711L54.692,56.711C57.615,53.139 62.032,50.848 66.989,50.848C73.827,50.848 79.656,55.196 81.919,61.273L56.499,61.273L56.499,61.277L41.629,61.277C41.239,63.073 41.027,64.935 41.027,66.847C41.027,81.207 52.673,92.891 66.989,92.891C77.341,92.891 86.296,86.777 90.461,77.963L78.429,77.963C75.532,80.969 71.479,82.844 66.989,82.844C59.731,82.844 53.601,77.951 51.677,71.283L82.299,71.283L82.297,71.289L92.565,71.289Z" style="fill-rule:nonzero;"/>
    <path d="M10.862,66.736C10.862,40.903 28.299,19.093 51.983,12.491L51.983,23.139C33.947,29.397 20.954,46.593 20.954,66.787C20.954,86.98 33.947,104.176 51.983,110.433L51.983,120.98C28.299,114.379 10.862,92.568 10.862,66.736ZM62,102.565C44.492,100.12 30.968,85.012 30.968,66.787C30.968,48.561 44.492,33.452 62,31.007L62,0.593C27.853,3.163 0.847,31.836 0.847,66.736C0.847,101.636 27.853,130.307 62,132.877L62,102.565Z" style="fill-rule:nonzero;"/>
    <path d="M81.964,120.989L81.964,110.444C100.015,104.195 113.024,86.992 113.024,66.787C113.024,46.581 100.015,29.377 81.964,23.129L81.964,12.483C105.663,19.073 123.116,40.892 123.116,66.736C123.116,92.58 105.663,114.397 81.964,120.989ZM71.977,0.593L71.977,31.007C89.487,33.452 103.009,48.561 103.009,66.787C103.009,85.012 89.485,100.12 71.977,102.565L71.977,132.877C106.124,130.308 133.131,101.636 133.131,66.736C133.131,31.835 106.124,3.163 71.977,0.593Z" style="fill-rule:nonzero;"/>
    <path d="M292.103,40.904C288.168,40.904 284.501,41.996 281.2,44.149C279.591,45.196 278.169,46.428 276.947,47.835C275.723,46.427 274.301,45.193 272.688,44.147C269.393,41.996 265.715,40.904 261.763,40.904C256.24,40.904 251.461,42.896 247.556,46.824C243.641,50.716 241.649,55.505 241.649,61.047L241.649,91.115L251.564,91.115L251.564,61.047C251.564,58.197 252.544,55.827 254.559,53.796C256.56,51.796 258.919,50.819 261.763,50.819C264.611,50.819 266.983,51.799 269.012,53.813C271.011,55.827 271.989,58.197 271.989,61.047L271.989,91.115L281.904,91.115L281.904,61.047C281.904,58.197 282.884,55.827 284.899,53.796C286.9,51.796 289.259,50.819 292.103,50.819C294.951,50.819 297.321,51.799 299.352,53.813C301.351,55.827 302.329,58.197 302.329,61.047L302.329,91.115L312.244,91.115L312.244,61.047C312.244,55.505 310.252,50.716 306.324,46.811C302.432,42.896 297.643,40.904 292.103,40.904Z" style="fill-rule:nonzero;"/>
    <path d="M445.479,42.52L435.564,42.52L435.564,91.144L445.479,91.144L445.479,42.52Z" style="fill-rule:nonzero;"/>
    <path d="M476.239,40.904C470.02,40.904 464.629,43.141 460.219,47.551C455.808,51.963 453.571,57.353 453.571,63.572L453.571,91.144L463.485,91.144L463.485,63.572C463.485,60.017 464.712,57.063 467.236,54.539C469.745,52.013 472.688,50.789 476.239,50.789C477.563,50.789 478.885,51.001 480.168,51.419L484.544,52.841L484.544,42.32L482.057,41.663C480.16,41.16 478.201,40.904 476.239,40.904Z" style="fill-rule:nonzero;"/>
    <path d="M501.268,42.52L491.353,42.52L491.353,91.144L501.268,91.144L501.268,42.52Z" style="fill-rule:nonzero;"/>
    <path d="M533.131,50.848C537.595,50.848 541.299,52.383 544.455,55.539C547.611,58.693 549.144,62.397 549.144,66.861C549.144,71.327 547.611,75.029 544.455,78.185C541.299,81.341 537.595,82.876 533.131,82.876C528.667,82.876 524.963,81.341 521.807,78.185C518.651,75.029 517.117,71.327 517.117,66.861C517.117,62.397 518.651,58.693 521.807,55.537C524.963,52.383 528.667,50.848 533.131,50.848ZM551.437,48.545C546.412,43.499 540.249,40.933 533.131,40.933C526.015,40.933 519.844,43.496 514.791,48.551C509.756,53.585 507.203,59.747 507.203,66.861C507.203,73.975 509.753,80.144 514.785,85.198C519.848,90.239 526.017,92.789 533.131,92.789C537.74,92.789 542.097,91.62 546.083,89.315C547.163,88.681 548.183,87.984 549.144,87.224L549.144,91.175L559.059,91.175L559.059,66.861C559.059,59.743 556.495,53.58 551.437,48.545Z" style="fill-rule:nonzero;"/>
    <path d="M426.871,83.453C426.871,86.813 424.147,89.537 420.787,89.537C417.427,89.537 414.703,86.813 414.703,83.453C414.703,80.093 417.427,77.371 420.787,77.371C424.147,77.371 426.871,80.093 426.871,83.453Z" style="fill-rule:nonzero;"/>
    <path d="M236.352,66.872C236.352,52.549 224.7,40.897 210.377,40.897C199.675,40.897 190.481,47.415 186.509,56.68L198.157,56.68C201.079,53.169 205.463,50.923 210.377,50.923C217.18,50.923 222.984,55.211 225.272,61.219L185.031,61.221C184.625,63.041 184.404,64.931 184.404,66.872C184.404,81.193 196.056,92.846 210.377,92.846C220.639,92.846 229.527,86.864 233.744,78.205L221.565,78.205C218.685,81.052 214.737,82.82 210.377,82.82C203.171,82.82 197.072,78.011 195.103,71.436L235.943,71.432C236.207,69.949 236.352,68.428 236.352,66.872Z" style="fill-rule:nonzero;"/>
    <path d="M428.671,66.872C428.671,52.549 417.019,40.897 402.696,40.897C391.995,40.897 382.801,47.415 378.828,56.68L390.476,56.68C393.399,53.169 397.783,50.923 402.696,50.923C409.499,50.923 415.303,55.211 417.592,61.219L377.349,61.221C376.944,63.041 376.723,64.931 376.723,66.872C376.723,81.193 388.375,92.846 402.696,92.846C404.964,92.846 407.157,92.537 409.255,91.989L409.255,81.384C407.252,82.297 405.039,82.82 402.696,82.82C395.489,82.82 389.391,78.011 387.421,71.436L428.261,71.432C428.525,69.949 428.671,68.428 428.671,66.872Z" style="fill-rule:nonzero;"/>
    <path d="M363.843,48.521C358.808,43.487 352.647,40.933 345.531,40.933C338.417,40.933 332.249,43.485 327.196,48.516C322.155,53.58 319.604,59.748 319.604,66.861L319.604,106.741L329.517,106.741L329.517,87.219L329.525,87.223L329.525,67.025L329.517,66.861L329.525,66.697L329.525,66.677C329.568,62.297 331.096,58.649 334.208,55.537C337.368,52.36 341.071,50.819 345.531,50.819C349.992,50.819 353.693,52.36 356.848,55.532C360.011,58.693 361.544,62.397 361.544,66.861C361.544,71.309 360.008,75.016 356.848,78.192C353.699,81.341 349.995,82.876 345.531,82.876C341.067,82.876 337.363,81.341 334.208,78.185C333.681,77.656 333.216,77.107 332.78,76.547L332.78,89.395C336.676,91.64 340.971,92.789 345.531,92.789C352.649,92.789 358.812,90.225 363.847,85.168C368.895,80.143 371.459,73.98 371.459,66.861C371.459,59.747 368.896,53.575 363.843,48.521Z" style="fill-rule:nonzero;"/>
</svg>
