<svg width="21" height="22" viewBox="0 0 21 22" fill="none" xmlns="http://www.w3.org/2000/svg">
<g clip-path="url(#clip0_6964_2391)">
<path fill-rule="evenodd" clip-rule="evenodd" d="M21 11C21 16.799 16.299 21.5 10.5 21.5C4.70101 21.5 0 16.799 0 11C0 5.20101 4.70101 0.5 10.5 0.5C16.299 0.5 21 5.20101 21 11ZM10.8763 8.25155C9.85498 8.67634 7.81385 9.55553 4.75289 10.8891C4.25584 11.0868 3.99546 11.2802 3.97176 11.4693C3.9317 11.7888 4.33186 11.9146 4.87677 12.086C4.95089 12.1093 5.02769 12.1334 5.10643 12.159C5.64254 12.3333 6.36371 12.5372 6.73861 12.5453C7.07868 12.5526 7.45825 12.4124 7.87729 12.1247C10.7372 10.1941 12.2136 9.21832 12.3063 9.19729C12.3716 9.18244 12.4623 9.16378 12.5237 9.21835C12.585 9.27292 12.579 9.37627 12.5725 9.40399C12.5329 9.57299 10.9621 11.0333 10.1492 11.7891C9.8958 12.0246 9.71605 12.1918 9.6793 12.2299C9.59699 12.3154 9.51309 12.3963 9.43247 12.474C8.9344 12.9542 8.56091 13.3142 9.45315 13.9022C9.88192 14.1847 10.225 14.4184 10.5673 14.6515C10.9411 14.9061 11.314 15.16 11.7964 15.4762C11.9193 15.5568 12.0367 15.6404 12.151 15.7219C12.586 16.0321 12.9769 16.3107 13.4597 16.2663C13.7403 16.2405 14.0301 15.9766 14.1773 15.1898C14.5252 13.3302 15.2089 9.30114 15.3669 7.64084C15.3808 7.49538 15.3634 7.30921 15.3494 7.22749C15.3354 7.14577 15.3062 7.02933 15.1999 6.94314C15.0741 6.84106 14.8799 6.81953 14.7931 6.82106C14.3981 6.82802 13.7922 7.0387 10.8763 8.25155Z" fill="white"/>
</g>
<defs>
<clipPath id="clip0_6964_2391">
<rect width="21" height="21" fill="white" transform="translate(0 0.5)"/>
</clipPath>
</defs>
</svg>
